<!DOCTYPE svg PUBLIC "-//W3C//DTD SVG 1.1//EN" "http://www.w3.org/Graphics/SVG/1.1/DTD/svg11.dtd">
<!-- Uploaded to: SVG Repo, www.svgrepo.com, Transformed by: SVG Repo Mixer Tools -->
<svg fill="" version="1.1" id="Layer_1" xmlns="http://www.w3.org/2000/svg" xmlns:xlink="http://www.w3.org/1999/xlink" width="65px" height="65px" viewBox="-110.24 -110.24 428.48 428.48" enable-background="new 0 0 208 256" xml:space="preserve" stroke="">
<g id="SVGRepo_bgCarrier" stroke-width="0">
<rect x="-110.24" y="-110.24" width="428.48" height="428.48" rx="214.24" fill="#09fbd3" strokewidth="0"/>
</g>
<g id="SVGRepo_tracerCarrier" stroke-linecap="round" stroke-linejoin="round"/>
<g id="SVGRepo_iconCarrier"> <path d="M58.928,101.527c-0.844-11.146,1.858-21.617,8.613-30.398c0.253,2.28,1.52,4.053,1.52,5.657 c0,6.333-0.507,10.133,3.546,15.115c1.604,1.858,2.195,4.898,2.871,7.262c0.844,2.28,3.546,3.378,5.573,4.729 c3.884,2.533,7.684,5.827,11.906,8.106c2.702,1.52,4.306,2.28,3.884,5.573c-0.507,2.533-0.507,4.222-1.773,6.586 c-0.253,0.844,1.858,5.151,2.533,5.658c2.195,1.773,4.222,3.546,6.502,5.151c3.547,2.533,0,6.333-1.351,10.302 c-10.302-0.675-20.181-4.729-28.119-11.653C65.26,125.339,59.772,113.855,58.928,101.527z M90.17,91.563 c-2.364-2.449-6.84-1.098-10.048-1.098c0.253,4.475-0.929,10.555,3.378,13.426c4.222,2.702,5.826,4.138,10.555,5.911 c3.547,1.351,12.835-2.955,15.959-1.097c4.222,2.702,7.853,5.151,12.75,6.924c2.195,0.675,8.782,4.729,7.177,7.599 c-1.351,2.111-2.364,4.053-3.209,6.333c-0.845,2.111-2.955,4.982-4.729,6.586c-2.027,1.773-4.137,4.897-5.235,8.106 c9.035-2.195,17.057-7.177,23.39-14.355c5.742-6.502,9.373-14.017,10.977-22.292c-2.195,0.591-4.897-0.253-4.897-0.253 s-6.08-5.826-6.924-11.4c-0.844-5.657,0.929-11.737-0.169-16.466c-1.098-4.138-7.177-6.418-9.373-10.048 c-2.111-3.546-7.093-7.599-7.262-8.528c-0.169-1.267,2.702-1.773,3.209-1.52c1.267-0.422,2.618-0.507,3.547-0.675 c-6.08-3.715-12.919-5.911-20.181-6.586l0.169,2.28l1.098,2.533c0,0-2.533,3.377-3.378,3.546c-0.675,0-2.28-0.675-2.28-0.675 l-2.702-2.533l-2.702-2.871l-3.631-1.351c-4.053,1.013-8.022,2.364-11.653,4.222c0.084,0.422,0.253,1.097,0.253,1.773 c1.942-0.844,4.053-1.52,5.826-2.449c0.676-0.253,3.378,1.689,4.222,2.195c-0.929,1.182-4.982,4.306-5.151,5.911 c-0.084,0.675,1.773,1.52,1.773,2.449c0,1.351,0.253,2.111,0.253,3.631c0.76-0.676,4.56-4.897,5.235-4.897 c3.293-1.267,9.204,4.053,9.879,5.911c0.675,1.773-5.151,6.502-7.853,9.373c-2.195,2.111-6.417,3.716-4.897,6.586 c0.507,0.929,2.955,4.982,1.351,6.671C93.379,95.785,90.846,92.407,90.17,91.563z M35.8,2H205.82v194.654v0.202 c-13.226,0-23.928,10.702-23.928,23.928s10.702,23.928,23.928,23.928V254H34.084v-0.101C16.416,253.192,2,238.87,2,221 c0-1.514,0-186,0-186C2,16.726,17.526,2,35.8,2z M183.204,196.654l-149.726,0.303c-12.317,0.909-22.111,11.207-22.111,23.726 c0,13.226,10.803,24.029,24.029,23.928h147.505c-6.26-6.058-10.298-14.539-10.298-23.928 C172.603,211.192,176.743,202.712,183.204,196.654z M52.51,101.949c1.773,29.132,26.936,51.255,56.153,49.566 c29.216-1.773,51.424-26.936,49.482-56.152c-1.773-29.216-26.852-51.424-56.068-49.482C72.86,47.57,50.652,72.733,52.51,101.949z"/> </g>
</svg>