<!DOCTYPE svg PUBLIC "-//W3C//DTD SVG 1.1//EN" "http://www.w3.org/Graphics/SVG/1.1/DTD/svg11.dtd">

<!-- Uploaded to: SVG Repo, www.svgrepo.com, Transformed by: SVG Repo Mixer Tools -->
<svg xmlns="http://www.w3.org/2000/svg" fill="#faf4f4" width="800px" height="800px" viewBox="-6 -6 36.00 36.00" stroke="#faf4f4">

<g id="SVGRepo_bgCarrier" stroke-width="0">

<rect x="-6" y="-6" width="36.00" height="36.00" rx="18" fill="#ff0000" strokewidth="0"/>

</g>

<g id="SVGRepo_tracerCarrier" stroke-linecap="round" stroke-linejoin="round"/>

<g id="SVGRepo_iconCarrier">

<path d="M6 19c0 1.1.9 2 2 2h8c1.1 0 2-.9 2-2V7H6v12zm2.46-7.12l1.41-1.41L12 12.59l2.12-2.12 1.41 1.41L13.41 14l2.12 2.12-1.41 1.41L12 15.41l-2.12 2.12-1.41-1.41L10.59 14l-2.13-2.12zM15.5 4l-1-1h-5l-1 1H5v2h14V4z"/>

</g>

</svg>