<!DOCTYPE svg PUBLIC "-//W3C//DTD SVG 1.1//EN" "http://www.w3.org/Graphics/SVG/1.1/DTD/svg11.dtd">

<!-- Uploaded to: SVG Repo, www.svgrepo.com, Transformed by: SVG Repo Mixer Tools -->
<svg width="64px" height="64px" viewBox="-47.36 -47.36 222.72 222.72" data-name="Слой 1" id="Слой_1" xmlns="http://www.w3.org/2000/svg" fill="#000000" stroke="#000000" stroke-width="1.152">

<g id="SVGRepo_bgCarrier" stroke-width="0">

<rect x="-47.36" y="-47.36" width="222.72" height="222.72" rx="111.36" fill="#09fbd3" strokewidth="0"/>

</g>

<g id="SVGRepo_tracerCarrier" stroke-linecap="round" stroke-linejoin="round"/>

<g id="SVGRepo_iconCarrier">

<defs>

<style>.cls-1{fill:#121212;}.cls-2{fill:#000000;}</style>

</defs>

<title/>

<path class="cls-1" d="M94.95,2,76.39,20.56,23.51,49.73,2,117.81,37.42,82.4a5.74,5.74,0,0,1,1-.81,13.26,13.26,0,1,1,8,8,5.79,5.79,0,0,1-.81,1L10.19,126l68.08-21.51,29.18-52.88L126,33.05Z"/>

<path class="cls-2" d="M10.19,128a2,2,0,0,1-1.41-3.41L44.19,89.17a3.81,3.81,0,0,0,.53-.68,2,2,0,0,1,2.37-.82A11.23,11.23,0,0,0,58.85,69.15a11.26,11.26,0,0,0-15.92,0,11.3,11.3,0,0,0-2.6,11.76,2,2,0,0,1-.82,2.37,3.79,3.79,0,0,0-.68.52L3.41,119.23a2,2,0,0,1-3.32-2L21.6,49.13A2,2,0,0,1,22.54,48l52.64-29L93.53.59a2,2,0,0,1,2.83,0l31.05,31.05a2,2,0,0,1,0,2.83L109.06,52.82,80,105.46a2,2,0,0,1-1.15.94L10.79,127.91A2,2,0,0,1,10.19,128Zm37-36.14L47,92,17.39,121.63l59.51-18.8,28.79-52.18a2,2,0,0,1,.34-.45l17.14-17.14L94.95,4.83,77.8,22a2,2,0,0,1-.45.34L25.17,51.1,6.37,110.61,36,81l.13-.13a15.26,15.26,0,1,1,11,11ZM76.39,20.56h0Z"/>

</g>

</svg>