<!DOCTYPE svg PUBLIC "-//W3C//DTD SVG 1.1//EN" "http://www.w3.org/Graphics/SVG/1.1/DTD/svg11.dtd">
<!-- Uploaded to: SVG Repo, www.svgrepo.com, Transformed by: SVG Repo Mixer Tools -->
<svg version="1.1" id="Capa_1" xmlns="http://www.w3.org/2000/svg" xmlns:xlink="http://www.w3.org/1999/xlink" viewBox="-115.61 -115.61 733.88 733.88" xml:space="preserve" width="64px" height="64px" fill="#000000" transform="rotate(0)">
<g id="SVGRepo_bgCarrier" stroke-width="0">
<rect x="-115.61" y="-115.61" width="733.88" height="733.88" rx="366.94" fill="#09fbd3" strokewidth="0"/>
</g>
<g id="SVGRepo_tracerCarrier" stroke-linecap="round" stroke-linejoin="round"/>
<g id="SVGRepo_iconCarrier"> <g> <g> <g> <polygon style="fill:#010002;" points="390.927,344.744 390.927,399.965 361.354,399.965 433.465,472.055 406.717,498.889 502.664,498.889 502.664,402.877 475.851,429.668 "/> <polygon style="fill:#010002;" points="406.717,3.775 433.465,30.587 361.397,102.655 390.927,102.655 390.927,157.92 475.851,73.017 502.664,99.808 502.664,3.775 "/> <polygon style="fill:#010002;" points="111.672,399.965 111.672,344.831 26.812,429.647 0,402.877 0,498.889 95.947,498.889 69.199,472.055 141.31,399.965 "/> <polygon style="fill:#010002;" points="111.672,157.855 111.672,102.655 141.267,102.655 69.199,30.587 95.947,3.775 0,3.775 0,99.786 26.812,72.996 "/> <rect x="143.877" y="136.888" style="fill:#010002;" width="214.867" height="228.78"/> </g> </g> <g> </g> <g> </g> <g> </g> <g> </g> <g> </g> <g> </g> <g> </g> <g> </g> <g> </g> <g> </g> <g> </g> <g> </g> <g> </g> <g> </g> <g> </g> </g> </g>
</svg>