<!DOCTYPE svg PUBLIC "-//W3C//DTD SVG 1.1//EN" "http://www.w3.org/Graphics/SVG/1.1/DTD/svg11.dtd">

<!-- Uploaded to: SVG Repo, www.svgrepo.com, Transformed by: SVG Repo Mixer Tools -->
<svg width="64px" height="64px" viewBox="-31 -31 162.00 162.00" xmlns="http://www.w3.org/2000/svg" xmlns:xlink="http://www.w3.org/1999/xlink" aria-hidden="true" role="img" class="iconify iconify--gis" preserveAspectRatio="xMidYMid meet" fill="#f01919" stroke="#f01919" stroke-width="0.001" transform="matrix(1, 0, 0, 1, 0, 0)rotate(0)"><g id="SVGRepo_bgCarrier" stroke-width="0"><rect x="-31" y="-31" width="162.00" height="162.00" rx="81" fill="#09fbd3" strokewidth="0"/></g><g id="SVGRepo_tracerCarrier" stroke-linecap="round" stroke-linejoin="round"/><g id="SVGRepo_iconCarrier"><path d="M80.5 0c-7.145 0-13.252 4.246-15.977 10.357H28.135a3.5 3.5 0 0 0-2.668 1.235L.832 40.607c-1.93 2.275-.313 5.767 2.67 5.766l93-.064c2.981-.003 4.595-3.493 2.666-5.766l-7.87-9.272A17.428 17.428 0 0 0 98 17.5C98 7.805 90.195 0 80.5 0zM77 5h7v9h9v7h-9v9h-7v-9h-9v-7h9V5zM29.754 17.357h33.254c0 .048-.008.095-.008.143C63 27.195 70.805 35 80.5 35c1.492 0 2.93-.205 4.31-.553l4.131 4.867l-77.873.053l18.686-22.01zM89.91 51.313l-9.178.007l8.211 9.67l-77.875.053l8.22-9.682l-9.188.008L.832 62.283c-1.93 2.275-.313 5.767 2.67 5.766l93-.065c2.981-.002 4.595-3.492 2.666-5.765L89.91 51.312zm0 21.593l-9.178.008l8.211 9.67l-77.875.053l8.22-9.682l-9.188.008L.832 83.877c-1.93 2.274-.313 5.767 2.67 5.766l93-.065c2.981-.002 4.595-3.493 2.666-5.766L89.91 72.906z" fill="#050505"/></g></svg>