<svg height="64px" width="64px" version="1.1" id="Layer_1" xmlns="http://www.w3.org/2000/svg" xmlns:xlink="http://www.w3.org/1999/xlink" viewBox="-176.95 -176.95 845.42 845.42" xml:space="preserve" fill="#ffffff" transform="rotate(0)matrix(1, 0, 0, 1, 0, 0)"><g id="SVGRepo_bgCarrier" stroke-width="0"></g><g id="SVGRepo_tracerCarrier" stroke-linecap="round" stroke-linejoin="round" stroke="#CCCCCC" stroke-width="1.9660799999999998"></g><g id="SVGRepo_iconCarrier"> <path style="fill:#cde1e5;" d="M245.76,0v73.956c50.998,0,92.34,41.342,92.34,92.34c0,50.998-41.342,92.34-92.34,92.34v232.883 c0.011-0.015,166.295-233.384,166.295-325.223C412.055,74.453,337.603,0,245.76,0z"></path> <path style="fill:#01feed;" d="M245.76,258.636c-50.998,0-92.341-41.342-92.341-92.34c0-50.997,41.342-92.34,92.341-92.34l0,0V0l0,0 C153.918,0,79.465,74.453,79.465,166.296S245.76,491.52,245.76,491.52v-0.001V258.636L245.76,258.636z"></path> </g></svg> 