<!DOCTYPE svg PUBLIC "-//W3C//DTD SVG 1.1//EN" "http://www.w3.org/Graphics/SVG/1.1/DTD/svg11.dtd">

<!-- Uploaded to: SVG Repo, www.svgrepo.com, Transformed by: SVG Repo Mixer Tools -->
<svg width="64px" height="64px" viewBox="-11 -11 122.00 122.00" xmlns="http://www.w3.org/2000/svg" xmlns:xlink="http://www.w3.org/1999/xlink" aria-hidden="true" role="img" class="iconify iconify--gis" preserveAspectRatio="xMidYMid meet" fill="#000000">

<g id="SVGRepo_bgCarrier" stroke-width="0"/>

<g id="SVGRepo_tracerCarrier" stroke-linecap="round" stroke-linejoin="round"/>

<g id="SVGRepo_iconCarrier">

<path d="M37.234 0a5.87 5.87 0 0 0-5.87 5.87a5.87 5.87 0 0 0 5.57 5.86l-1.452 28.32a11.74 11.74 0 0 0-9.987 11.606h19.28l3.829 43.1a1.612 10.476 0 0 0 2.792 0l3.83-43.1h19.279a11.74 11.74 0 0 0-9.987-11.606l-1.451-28.32a5.87 5.87 0 0 0 5.569-5.86A5.87 5.87 0 0 0 62.766 0z" fill="#000000"/>

</g>

</svg>