<!DOCTYPE svg PUBLIC "-//W3C//DTD SVG 1.1//EN" "http://www.w3.org/Graphics/SVG/1.1/DTD/svg11.dtd">

<!-- Uploaded to: SVG Repo, www.svgrepo.com, Transformed by: SVG Repo Mixer Tools -->
<svg fill="" version="1.1" id="Capa_1" xmlns="http://www.w3.org/2000/svg" xmlns:xlink="http://www.w3.org/1999/xlink" width="64px" height="64px" viewBox="-7.8 -7.8 41.59 41.59" xml:space="preserve" stroke="">

<g id="SVGRepo_bgCarrier" stroke-width="0">

<rect x="-7.8" y="-7.8" width="41.59" height="41.59" rx="20.795" fill="#09fbd3" strokewidth="0"/>

</g>

<g id="SVGRepo_tracerCarrier" stroke-linecap="round" stroke-linejoin="round"/>

<g id="SVGRepo_iconCarrier"> <g> <g> <path d="M18.82,18.488h-2.359c-0.229,0.373-0.451,0.73-0.666,1.072h2.512l4.291,5.357H3.392l4.292-5.357h2.511 c-0.214-0.342-0.437-0.699-0.666-1.072H7.17L1.162,25.99h23.666L18.82,18.488z"/> <path d="M20.409,7.413C20.409,3.319,17.088,0,12.995,0S5.581,3.319,5.581,7.413c0,4.094,7.414,14.827,7.414,14.827 S20.409,11.507,20.409,7.413z M9.288,7.413c0-2.049,1.661-3.707,3.707-3.707s3.707,1.658,3.707,3.707s-1.661,3.707-3.707,3.707 S9.288,9.462,9.288,7.413z"/> </g> </g> </g>

</svg>