<!DOCTYPE svg PUBLIC "-//W3C//DTD SVG 1.1//EN" "http://www.w3.org/Graphics/SVG/1.1/DTD/svg11.dtd">

<!-- Uploaded to: SVG Repo, www.svgrepo.com, Transformed by: SVG Repo Mixer Tools -->
<svg fill="#000000" height="64px" width="64px" version="1.1" id="Layer_1" xmlns="http://www.w3.org/2000/svg" xmlns:xlink="http://www.w3.org/1999/xlink" viewBox="-50.35 -50.35 604.23 604.23" xml:space="preserve" transform="rotate(0)matrix(-1, 0, 0, 1, 0, 0)">

<g id="SVGRepo_bgCarrier" stroke-width="0"/>

<g id="SVGRepo_tracerCarrier" stroke-linecap="round" stroke-linejoin="round"/>

<g id="SVGRepo_iconCarrier"> <g> <g> <path d="M456.895,46.656C426.803,16.572,386.808,0,344.248,0c-42.552,0-82.56,16.576-112.652,46.656 C176.952,101.3,170.408,186.088,211.9,247.984l-2.952,2.94c-8.244,8.26-10.4,20.336-6.476,30.608l-29.828,29.832l-3.432-3.424 c-1.508-1.504-3.92-1.544-5.48-0.084L8.564,453.8c-11.356,11.356-11.356,29.84,0,41.196c5.508,5.5,12.812,8.536,20.6,8.536 c7.772,0,15.084-3.036,20.672-8.616l145.872-155.084c1.452-1.556,1.416-3.984-0.084-5.48l-3.436-3.432l29.832-29.828 c3.304,1.264,6.792,1.92,10.276,1.92c7.364,0,14.728-2.804,20.328-8.404l2.916-2.92c26.024,17.52,56.636,26.94,88.708,26.94 c42.56,0,82.556-16.572,112.648-46.664C519.016,209.848,519.016,108.776,456.895,46.656z M429.124,244.188 c-22.672,22.66-52.816,35.148-84.876,35.148c-32.064,0-62.208-12.488-84.872-35.148c-46.8-46.796-46.8-122.944,0-169.744 c22.664-22.68,52.808-35.16,84.88-35.16c32.06,0,62.204,12.48,84.868,35.152C475.928,121.228,475.928,197.376,429.124,244.188z"/> </g> </g> <g> <g> <path d="M405.204,153.408c0-8.692-7.044-15.736-15.74-15.736H298.98c-8.688,0-15.74,7.044-15.74,15.736v11.804 c0,8.688,7.052,15.736,15.74,15.736h90.488c8.696,0,15.74-7.048,15.74-15.736v-11.804H405.204z"/> </g> </g> </g>

</svg>